<?xml version="1.0" encoding="UTF-8" standalone="no"?><!DOCTYPE svg PUBLIC "-//W3C//DTD SVG 1.1//EN" "http://www.w3.org/Graphics/SVG/1.1/DTD/svg11.dtd"><svg width="100%" height="100%" viewBox="0 0 4267 4267" version="1.1" xmlns="http://www.w3.org/2000/svg" xmlns:xlink="http://www.w3.org/1999/xlink" xml:space="preserve" xmlns:serif="http://www.serif.com/" style="fill-rule:evenodd;clip-rule:evenodd;stroke-linejoin:round;stroke-miterlimit:2;"><g><rect x="0" y="0" width="4266.67" height="4266.67" style="fill:#c00;"/><g><g><path d="M921.808,1666.1l-195.66,7.826l-65.742,349.057l-147.136,0l25.044,-472.714l1031.52,-0l20.349,472.714l-139.31,0l-68.872,-349.057l-189.399,-7.826l-0,926.645l217.574,17.218l-0,103.308l-687.158,0l0,-103.308l198.791,-17.218l-0,-926.645Z" style="fill:#fff;fill-rule:nonzero;"/><path d="M1796.8,1681.75l-122.091,-21.914l-0,-109.569l856.207,-0l20.349,277.054l-123.657,0l-54.785,-158.093l-308.36,-15.653l0,406.973l190.964,-4.696l28.175,-128.353l108.004,0l0,392.885l-108.004,0l-26.61,-136.179l-192.529,-4.696l0,425.756l342.796,-21.914l95.482,-201.921l133.049,37.567l-37.567,294.272l-921.949,0l-0,-103.308l120.526,-15.653l0,-912.558Z" style="fill:#fff;fill-rule:nonzero;"/><path d="M3210.24,2730.49c-175.311,0 -305.229,-52.958 -389.754,-158.876c-84.525,-105.917 -126.788,-251.749 -126.788,-437.495c0,-120.005 22.175,-225.139 66.524,-315.404c44.35,-90.264 106.7,-159.919 187.051,-208.964c80.351,-49.046 174.268,-73.569 281.75,-73.569c179.486,0 311.752,49.829 396.799,149.485c85.047,99.656 127.57,241.835 127.57,426.538c-0,122.092 -22.436,229.835 -67.307,323.23c-44.871,93.395 -108.265,165.92 -190.181,217.574c-81.917,51.654 -177.138,77.481 -285.664,77.481Zm14.088,-1091c-75.134,-0 -133.31,41.219 -174.529,123.657c-41.219,82.438 -61.828,205.573 -61.828,369.406c-0,166.963 20.348,290.881 61.045,371.753c40.698,80.873 98.613,121.31 173.746,121.31c74.09,-0 131.745,-44.089 172.964,-132.267c41.219,-88.177 61.828,-214.704 61.828,-379.58c0,-166.963 -19.827,-287.75 -59.48,-362.362c-39.654,-74.611 -97.569,-111.917 -173.746,-111.917Z" style="fill:#fff;fill-rule:nonzero;"/></g></g></g></svg>